# xmcd
#
# Track frame offsets: 
#        150
#        24990
#        54813
#        60930
#        86123
#        100743
#        123370
#        140738
#        158578
#        181490
#        199690
#        238625
#
# Disc length: 3310 seconds
#
# Revision: 13
# Processed by: cddbd v1.5.2PL0 Copyright (c) Steve Scherf et al.
# Submitted via: ExactAudioCopy v1.5
#
DISCID=930cec0c
DTITLE=Genesis - Duke
DYEAR=1983
DGENRE=Symphonic Rock
TTITLE0=Behind the lines
TTITLE1=Duchess
TTITLE2=Guide vocal
TTITLE3=Man of our times
TTITLE4=Misunderstanding
TTITLE5=Heathaze
TTITLE6=Turn it on again
TTITLE7=Alone tonight
TTITLE8=Cul-de-sac
TTITLE9=Please don't ask
TTITLE10=Duke's travels
TTITLE11=Duke's end
EXTD=YEAR: 1983
EXTT0=
EXTT1=
EXTT2=
EXTT3=
EXTT4=
EXTT5=
EXTT6=
EXTT7=
EXTT8=
EXTT9=
EXTT10=
EXTT11=
PLAYORDER=
